<mxfile host="app.diagrams.net" modified="2023-02-05T18:00:29.548Z" agent="5.0 (Windows NT 10.0; Win64; x64) AppleWebKit/537.36 (KHTML, like Gecko) Chrome/109.0.0.0 Safari/537.36 Edg/109.0.1518.78" etag="IEWw49kbNPecLsir8ESm" version="20.8.14" type="github">
  <diagram name="第 1 页" id="xkbMWWi1FZk3PTWnj5VO">
    <mxGraphModel dx="1387" dy="834" grid="1" gridSize="10" guides="1" tooltips="1" connect="1" arrows="1" fold="1" page="1" pageScale="1" pageWidth="827" pageHeight="1169" math="0" shadow="0">
      <root>
        <mxCell id="0" />
        <mxCell id="1" parent="0" />
        <mxCell id="XIg5hB4c2bE7EbMfBuLh-1" value="" style="whiteSpace=wrap;html=1;" vertex="1" parent="1">
          <mxGeometry x="230" y="180" width="470" height="60" as="geometry" />
        </mxCell>
        <mxCell id="XIg5hB4c2bE7EbMfBuLh-2" value="" style="whiteSpace=wrap;html=1;" vertex="1" parent="1">
          <mxGeometry x="230" y="260" width="470" height="240" as="geometry" />
        </mxCell>
        <mxCell id="XIg5hB4c2bE7EbMfBuLh-3" value="选项1" style="whiteSpace=wrap;html=1;fillColor=#ffe6cc;strokeColor=#d79b00;" vertex="1" parent="1">
          <mxGeometry x="260" y="195" width="80" height="30" as="geometry" />
        </mxCell>
        <mxCell id="XIg5hB4c2bE7EbMfBuLh-4" value="选项2" style="whiteSpace=wrap;html=1;fillColor=#dae8fc;strokeColor=#6c8ebf;" vertex="1" parent="1">
          <mxGeometry x="425" y="195" width="80" height="30" as="geometry" />
        </mxCell>
        <mxCell id="XIg5hB4c2bE7EbMfBuLh-5" value="选项3" style="whiteSpace=wrap;html=1;fillColor=#d5e8d4;strokeColor=#82b366;" vertex="1" parent="1">
          <mxGeometry x="590" y="195" width="80" height="30" as="geometry" />
        </mxCell>
        <mxCell id="XIg5hB4c2bE7EbMfBuLh-6" value="内容1" style="whiteSpace=wrap;html=1;fillColor=#ffe6cc;strokeColor=#d79b00;" vertex="1" parent="1">
          <mxGeometry x="250" y="280" width="430" height="200" as="geometry" />
        </mxCell>
        <mxCell id="XIg5hB4c2bE7EbMfBuLh-7" value="内容2" style="whiteSpace=wrap;html=1;fillColor=#dae8fc;strokeColor=#6c8ebf;" vertex="1" parent="1">
          <mxGeometry x="250" y="500" width="430" height="200" as="geometry" />
        </mxCell>
        <mxCell id="XIg5hB4c2bE7EbMfBuLh-8" value="内容3" style="whiteSpace=wrap;html=1;fillColor=#d5e8d4;strokeColor=#82b366;" vertex="1" parent="1">
          <mxGeometry x="250" y="720" width="430" height="200" as="geometry" />
        </mxCell>
        <mxCell id="XIg5hB4c2bE7EbMfBuLh-12" style="edgeStyle=orthogonalEdgeStyle;rounded=0;orthogonalLoop=1;jettySize=auto;html=1;entryX=1;entryY=0.5;entryDx=0;entryDy=0;" edge="1" parent="1" source="XIg5hB4c2bE7EbMfBuLh-10" target="XIg5hB4c2bE7EbMfBuLh-1">
          <mxGeometry relative="1" as="geometry" />
        </mxCell>
        <mxCell id="XIg5hB4c2bE7EbMfBuLh-10" value="tab_list" style="whiteSpace=wrap;html=1;" vertex="1" parent="1">
          <mxGeometry x="770" y="195" width="120" height="30" as="geometry" />
        </mxCell>
        <mxCell id="XIg5hB4c2bE7EbMfBuLh-13" style="edgeStyle=orthogonalEdgeStyle;rounded=0;orthogonalLoop=1;jettySize=auto;html=1;exitX=0;exitY=0.5;exitDx=0;exitDy=0;entryX=1;entryY=0.5;entryDx=0;entryDy=0;" edge="1" parent="1" source="XIg5hB4c2bE7EbMfBuLh-11" target="XIg5hB4c2bE7EbMfBuLh-2">
          <mxGeometry relative="1" as="geometry" />
        </mxCell>
        <mxCell id="XIg5hB4c2bE7EbMfBuLh-11" value="tab_content" style="whiteSpace=wrap;html=1;" vertex="1" parent="1">
          <mxGeometry x="770" y="365" width="120" height="30" as="geometry" />
        </mxCell>
        <mxCell id="XIg5hB4c2bE7EbMfBuLh-14" value="" style="html=1;shadow=0;dashed=0;align=center;verticalAlign=middle;shape=mxgraph.arrows2.stylisedArrow;dy=0.6;dx=40;notch=15;feather=0.4;rotation=-90;fillColor=#e1d5e7;strokeColor=#9673a6;" vertex="1" parent="1">
          <mxGeometry x="50" y="470" width="190" height="60" as="geometry" />
        </mxCell>
      </root>
    </mxGraphModel>
  </diagram>
</mxfile>
